<svg xmlns="http://www.w3.org/2000/svg" width="120" height="100" viewBox="0 0 120 100" fill="none"><path d="M105 49.99C105 74.85 84.84 95 59.99 95c-9.72 0-18.7-3.08-26.05-8.31-2.13-1.52-4.11-3.21-5.94-5.06-8.03-8.13-13-19.31-13-31.64C15 25.15 35.13 5 59.99 5 84.85 5 105 25.13 105 49.99z" fill="#EFF0F1"/><mask id="a" maskUnits="userSpaceOnUse" x="-5" y="5" width="111" height="91"><path d="M105.003 49.99c0 24.86-20.16 45.01-45.01 45.01-9.72 0-48.64 2.73-55.99-2.5-2.13-1.52-1.17.35-3-1.5-8.03-8.13-5.5-28.68-5.5-41.01 0-24.84-10.5-44.99 64.49-44.99 24.86 0 45.01 20.13 45.01 44.99z" fill="#fff"/></mask><g mask="url(#a)"><path d="M111.875 88h-93.75C16.458 88 15 86.227 15 84.2V15.8c0-2.027 1.458-3.8 3.125-3.8h93.75c1.667 0 3.125 1.773 3.125 3.8v68.4c-.208 2.28-1.458 3.8-3.125 3.8z" fill="#fff" filter="url(#b)"/><rect x="27" y="17" width="78" height="66" rx="1" fill="#1F2225"/></g><rect x="34" y="23" width="26" height="18" rx="1" fill="#D9942D"/><rect x="34" y="47" width="26" height="18" rx="1" fill="#3C8B96"/><path d="M34 72c0-.552.448-1 1-1h24c.552 0 1 .448 1 1v11H34V72z" fill="#DE6A5A"/><rect x="66" y="23" width="26" height="18" rx="1" fill="#108060"/><rect x="66" y="47" width="26" height="18" rx="1" fill="#3C8B96"/><circle cx="21" cy="50" r="3" fill="#828A91"/><defs><filter id="b" x="10" y="8" width="110" height="86" filterUnits="userSpaceOnUse" color-interpolation-filters="sRGB"><feFlood flood-opacity="0" result="BackgroundImageFix"/><feColorMatrix in="SourceAlpha" values="0 0 0 0 0 0 0 0 0 0 0 0 0 0 0 0 0 0 127 0"/><feOffset dy="1"/><feGaussianBlur stdDeviation="2.5"/><feColorMatrix values="0 0 0 0 0 0 0 0 0 0 0 0 0 0 0 0 0 0 0.3 0"/><feBlend in2="BackgroundImageFix" result="effect1_dropShadow"/><feBlend in="SourceGraphic" in2="effect1_dropShadow" result="shape"/></filter></defs></svg>